<?xml version="1.0" encoding="UTF-8"?>
<svg id="Layer_2" data-name="Layer 2" xmlns="http://www.w3.org/2000/svg" viewBox="0 0 251.87 150.87">
  <defs>
    <style>
      .cls-1 {
        fill: #333;
      }

      .cls-2 {
        fill: #fff;
      }

      .cls-3 {
        fill: #8dc63f;
      }
    </style>
  </defs>
  <g id="Layer_1-2" data-name="Layer 1">
    <g>
      <rect class="cls-1" x="83.65" y="12.9" width="79.81" height="77.49" rx="9.58" ry="9.58" transform="translate(72.71 -72.24) rotate(45)"/>
      <g>
        <path class="cls-2" d="M114.59,79.02c-.89,0-1.8-.18-2.68-.55-2.55-1.08-4.13-3.47-4.13-6.23,0-1.27,1.03-2.3,2.3-2.3s2.3,1.03,2.3,2.3c0,1.33,1.01,1.87,1.32,2,.31.13,1.4.49,2.36-.44l21.25-20.59c.43-.41.66-.97.66-1.56s-.23-1.15-.66-1.56l-21.25-20.59c-.96-.93-2.05-.57-2.36-.44-.31.13-1.33.67-1.33,2s-1.03,2.3-2.3,2.3-2.3-1.03-2.3-2.3c0-2.77,1.58-5.16,4.13-6.23,2.55-1.08,5.37-.55,7.35,1.37l21.25,20.59c1.33,1.29,2.06,3.01,2.06,4.86s-.73,3.58-2.06,4.86l-21.25,20.59c-1.3,1.26-2.97,1.92-4.67,1.92Z"/>
        <path class="cls-3" d="M121.26,64.42c-.58,0-1.15-.21-1.6-.65l-8.28-8.01c-1.12-1.09-1.74-2.55-1.74-4.11s.62-3.02,1.74-4.11l8.28-8.01c.91-.88,2.37-.86,3.25.05s.86,2.37-.05,3.25l-8.28,8.01c-.3.29-.34.63-.34.81s.04.52.34.81l8.28,8.01c.91.88.94,2.34.05,3.25-.45.47-1.05.7-1.65.7Z"/>
      </g>
      <g>
        <path class="cls-1" d="M0,130.24v-14.73h6.35c1.47,0,2.77.32,3.9.95,1.13.63,2.01,1.5,2.65,2.61s.96,2.38.96,3.81-.32,2.7-.96,3.81-1.52,1.98-2.65,2.61-2.43.95-3.9.95H0ZM6.25,119.11h-2.08v7.53h2.08c.67,0,1.27-.16,1.78-.47.51-.32.91-.76,1.2-1.33.29-.57.43-1.22.43-1.97s-.14-1.4-.43-1.97c-.29-.57-.69-1.01-1.2-1.33-.51-.32-1.11-.47-1.78-.47Z"/>
        <path class="cls-1" d="M14.05,130.24l5.87-14.73h3.37l5.83,14.73h-4.15l-.9-2.44h-5.05l-.91,2.44h-4.06ZM20.64,123.4l-.55,1.45h2.88l-.53-1.45c-.2-.52-.37-.98-.5-1.39-.14-.41-.27-.83-.38-1.26-.13.44-.26.85-.41,1.25s-.32.87-.52,1.4Z"/>
        <path class="cls-1" d="M35.66,130.45c-1.58,0-2.9-.26-3.96-.79-1.05-.53-1.95-1.25-2.69-2.18l2.44-2.76c.7.91,1.42,1.52,2.17,1.82s1.47.45,2.17.45c.48,0,.87-.08,1.17-.23s.45-.4.45-.74-.15-.58-.45-.77-.66-.34-1.07-.45-.8-.21-1.17-.29c-1.67-.38-2.91-.94-3.72-1.69s-1.22-1.76-1.22-3.04c0-.69.16-1.32.47-1.89s.75-1.07,1.29-1.48c.55-.41,1.16-.73,1.85-.95s1.41-.33,2.17-.33c1.56,0,2.78.22,3.66.67s1.59,1.06,2.12,1.83l-2.48,2.4c-.45-.49-.94-.85-1.48-1.08s-1.09-.35-1.65-.35-.95.08-1.26.23-.46.39-.46.72c0,.27.13.48.39.65.26.17.57.3.94.4.37.1.7.18,1.01.23,1.04.21,1.95.5,2.74.87.79.37,1.4.87,1.85,1.49.45.62.67,1.42.67,2.39,0,1.05-.26,1.94-.79,2.66-.53.72-1.23,1.27-2.12,1.64-.89.37-1.9.56-3.02.56Z"/>
        <path class="cls-1" d="M58.18,130.45c-1.54,0-2.91-.33-4.1-.98s-2.12-1.56-2.8-2.71c-.67-1.16-1.01-2.48-1.01-3.97,0-1.11.2-2.13.6-3.06.4-.93.96-1.74,1.67-2.43.72-.69,1.56-1.22,2.55-1.6.98-.38,2.06-.57,3.24-.57,1.02,0,2.02.19,3,.58s1.81.96,2.51,1.71l-2.53,2.9c-.35-.41-.77-.74-1.27-1-.5-.26-1.08-.39-1.76-.39s-1.32.15-1.88.46c-.57.31-1.02.75-1.35,1.34-.33.58-.5,1.28-.5,2.09,0,1.16.37,2.09,1.11,2.79.74.69,1.72,1.04,2.96,1.04.64,0,1.24-.13,1.79-.4s1-.6,1.37-1.01l2,3.16c-.36.39-.84.74-1.44,1.05-.6.31-1.25.55-1.98.73s-1.45.26-2.18.26Z"/>
        <path class="cls-1" d="M72.84,130.45c-1.14,0-2.18-.19-3.13-.57-.95-.38-1.78-.91-2.48-1.6-.7-.69-1.25-1.5-1.63-2.43-.39-.93-.58-1.95-.58-3.06s.19-2.13.58-3.06c.38-.93.93-1.74,1.63-2.43.7-.69,1.53-1.22,2.48-1.6.95-.38,2-.57,3.13-.57s2.18.19,3.13.57c.95.38,1.78.91,2.47,1.6.69.69,1.23,1.5,1.62,2.43.39.93.58,1.95.58,3.06s-.19,2.13-.58,3.06c-.39.93-.93,1.74-1.62,2.43-.69.69-1.52,1.22-2.47,1.6-.95.38-2,.57-3.13.57ZM72.84,126.58c.69,0,1.3-.16,1.83-.49s.95-.78,1.26-1.35c.31-.57.46-1.22.46-1.95s-.15-1.38-.46-1.96c-.31-.57-.73-1.02-1.26-1.35s-1.14-.48-1.83-.48-1.3.16-1.84.48-.96.77-1.27,1.34c-.31.57-.46,1.22-.46,1.97s.15,1.38.46,1.95c.31.57.73,1.02,1.27,1.35s1.15.49,1.84.49Z"/>
        <path class="cls-1" d="M83.26,130.24v-14.73h3.64l3.96,6.44,4-6.44h3.51v14.73h-4.02v-3.93c0-.76.01-1.47.03-2.12.02-.66.05-1.29.09-1.89l-3.01,4.67h-1.39l-2.92-4.61c.06.58.09,1.19.11,1.83.01.65.02,1.35.02,2.12v3.93h-4.02Z"/>
        <path class="cls-1" d="M101.86,130.24v-14.73h3.64l3.96,6.44,4-6.44h3.51v14.73h-4.02v-3.93c0-.76.01-1.47.03-2.12.02-.66.05-1.29.09-1.89l-3.01,4.67h-1.39l-2.92-4.61c.06.58.09,1.19.11,1.83.01.65.02,1.35.02,2.12v3.93h-4.02Z"/>
        <path class="cls-1" d="M126.87,130.37c-1.25,0-2.36-.25-3.32-.75s-1.73-1.18-2.29-2.05c-.56-.87-.84-1.87-.84-2.99v-9.07h4.21v8.88c0,.69.21,1.26.64,1.7.43.45.96.67,1.61.67.69,0,1.25-.22,1.7-.67.45-.45.67-1.02.67-1.7v-8.88h4.08v9.07c0,1.12-.28,2.12-.83,2.99-.55.87-1.32,1.55-2.29,2.05-.98.5-2.09.75-3.33.75Z"/>
        <path class="cls-1" d="M136.8,130.24v-14.73h3.72l6.14,8.44c-.07-.62-.13-1.18-.17-1.68-.04-.51-.07-1.04-.09-1.62s-.02-1.26-.01-2.04v-3.09h4.02v14.73h-3.77l-6.02-8.23c.06.48.1.9.13,1.27s.05.76.05,1.16c0,.4.01.87.01,1.42v4.38h-4.02Z"/>
        <path class="cls-1" d="M153.74,130.24v-3.43h2.55v-7.89h-2.55v-3.41h9.26v3.41h-2.55v7.89h2.55v3.43h-9.26Z"/>
        <path class="cls-1" d="M173.03,130.45c-1.54,0-2.91-.33-4.1-.98s-2.12-1.56-2.8-2.71c-.67-1.16-1.01-2.48-1.01-3.97,0-1.11.2-2.13.6-3.06.4-.93.96-1.74,1.67-2.43.72-.69,1.56-1.22,2.55-1.6.98-.38,2.06-.57,3.24-.57,1.02,0,2.02.19,3,.58s1.81.96,2.51,1.71l-2.53,2.9c-.35-.41-.77-.74-1.27-1-.5-.26-1.08-.39-1.76-.39s-1.32.15-1.88.46c-.57.31-1.02.75-1.35,1.34-.33.58-.5,1.28-.5,2.09,0,1.16.37,2.09,1.11,2.79.74.69,1.72,1.04,2.96,1.04.64,0,1.24-.13,1.79-.4s1-.6,1.37-1.01l2,3.16c-.36.39-.84.74-1.44,1.05-.6.31-1.25.55-1.98.73s-1.45.26-2.18.26Z"/>
        <path class="cls-1" d="M178.76,130.24l5.87-14.73h3.37l5.83,14.73h-4.15l-.9-2.44h-5.05l-.91,2.44h-4.06ZM185.34,123.4l-.55,1.45h2.88l-.53-1.45c-.2-.52-.37-.98-.5-1.39-.14-.41-.27-.83-.38-1.26-.13.44-.26.85-.41,1.25s-.32.87-.52,1.4Z"/>
        <path class="cls-1" d="M197.65,130.24v-11.13h-4.48v-3.6h13.23v3.6h-4.59v11.13h-4.17Z"/>
        <path class="cls-1" d="M208.63,130.24v-3.43h2.55v-7.89h-2.55v-3.41h9.26v3.41h-2.55v7.89h2.55v3.43h-9.26Z"/>
        <path class="cls-1" d="M227.84,130.45c-1.14,0-2.18-.19-3.13-.57-.95-.38-1.78-.91-2.48-1.6-.7-.69-1.25-1.5-1.63-2.43-.39-.93-.58-1.95-.58-3.06s.19-2.13.58-3.06c.39-.93.93-1.74,1.63-2.43.7-.69,1.53-1.22,2.48-1.6.95-.38,2-.57,3.13-.57s2.18.19,3.14.57c.95.38,1.78.91,2.47,1.6.69.69,1.23,1.5,1.62,2.43.39.93.58,1.95.58,3.06s-.19,2.13-.58,3.06c-.39.93-.93,1.74-1.62,2.43-.69.69-1.52,1.22-2.47,1.6-.95.38-2,.57-3.14.57ZM227.84,126.58c.69,0,1.3-.16,1.83-.49s.95-.78,1.26-1.35c.31-.57.46-1.22.46-1.95s-.16-1.38-.46-1.96c-.31-.57-.73-1.02-1.26-1.35s-1.14-.48-1.83-.48-1.3.16-1.84.48-.96.77-1.27,1.34c-.31.57-.46,1.22-.46,1.97s.15,1.38.46,1.95c.31.57.73,1.02,1.27,1.35s1.15.49,1.84.49Z"/>
        <path class="cls-1" d="M238.26,130.24v-14.73h3.72l6.14,8.44c-.07-.62-.13-1.18-.17-1.68-.04-.51-.07-1.04-.09-1.62-.02-.58-.02-1.26,0-2.04v-3.09h4.02v14.73h-3.77l-6.02-8.23c.06.48.1.9.13,1.27.03.37.04.76.05,1.16,0,.4.01.87.01,1.42v4.38h-4.02Z"/>
      </g>
      <g>
        <path class="cls-1" d="M44.94,150.72v-10.68h6.47v1.16h-5.28v3.45h4.42v1.16h-4.42v3.75h5.25v1.16h-6.44Z"/>
        <path class="cls-1" d="M57.02,150.72l-4.13-10.68h1.34l2.65,6.96c.18.49.34.9.46,1.24.13.34.25.68.36,1.02.11-.36.23-.71.35-1.06.12-.35.27-.77.46-1.26l2.64-6.9h1.34l-4.26,10.68h-1.22Z"/>
        <path class="cls-1" d="M64.45,150.72v-10.68h6.47v1.16h-5.28v3.45h4.42v1.16h-4.42v3.75h5.25v1.16h-6.44Z"/>
        <path class="cls-1" d="M73.58,150.72v-10.68h4.18c.62,0,1.18.15,1.69.44.5.29.9.68,1.2,1.18.29.5.44,1.06.44,1.69,0,.7-.2,1.32-.59,1.85-.4.53-.91.91-1.53,1.12l2.55,4.39h-1.42l-2.41-4.21h-2.91v4.21h-1.19ZM74.77,145.35h3.19c.56,0,1.02-.19,1.37-.56.36-.38.53-.85.53-1.43,0-.62-.21-1.13-.64-1.54-.43-.41-.97-.61-1.62-.61h-2.84v4.15Z"/>
        <path class="cls-1" d="M87.92,150.72v-10.68h1.16l3.83,6.22,3.88-6.22h1.08v10.68h-1.19v-4.88c0-.72,0-1.38.02-1.98.01-.6.05-1.18.1-1.75l-3.52,5.52h-.82l-3.46-5.54c.05.54.08,1.11.1,1.7.02.59.02,1.28.02,2.05v4.88h-1.19Z"/>
        <path class="cls-1" d="M105.42,150.87c-.75,0-1.45-.13-2.09-.4-.64-.27-1.19-.65-1.66-1.14-.47-.49-.83-1.07-1.09-1.74s-.39-1.39-.39-2.17.13-1.52.39-2.19.62-1.25,1.09-1.74,1.02-.87,1.66-1.14c.64-.27,1.34-.4,2.09-.4s1.46.13,2.1.4,1.19.65,1.66,1.14.84,1.07,1.1,1.74c.26.67.39,1.4.39,2.19s-.13,1.51-.39,2.17c-.26.67-.63,1.25-1.1,1.74-.47.49-1.03.88-1.66,1.14-.64.27-1.33.4-2.1.4ZM105.42,149.7c.77,0,1.46-.18,2.07-.55.6-.37,1.08-.87,1.43-1.53.34-.65.52-1.39.52-2.21s-.17-1.58-.52-2.23c-.35-.65-.82-1.16-1.43-1.53-.61-.37-1.29-.56-2.07-.56s-1.47.19-2.07.56c-.6.37-1.07.88-1.41,1.53s-.51,1.39-.51,2.23.17,1.56.51,2.21.81,1.16,1.41,1.53,1.29.55,2.07.55Z"/>
        <path class="cls-1" d="M112.98,150.72v-10.68h4.18c.62,0,1.18.15,1.69.44.5.29.9.68,1.2,1.18.29.5.44,1.06.44,1.69,0,.7-.2,1.32-.59,1.85-.4.53-.91.91-1.53,1.12l2.55,4.39h-1.42l-2.41-4.21h-2.91v4.21h-1.19ZM114.17,145.35h3.19c.56,0,1.02-.19,1.37-.56.36-.38.53-.85.53-1.43,0-.62-.21-1.13-.64-1.54-.43-.41-.97-.61-1.62-.61h-2.84v4.15Z"/>
        <path class="cls-1" d="M123.05,150.72v-10.68h6.47v1.16h-5.28v3.45h4.42v1.16h-4.42v3.75h5.25v1.16h-6.44Z"/>
        <path class="cls-1" d="M140.88,150.87c-1.02,0-1.92-.23-2.71-.7-.79-.47-1.41-1.12-1.86-1.94-.45-.83-.68-1.78-.68-2.84,0-.77.13-1.49.4-2.15s.63-1.24,1.11-1.72c.47-.49,1.03-.87,1.66-1.14s1.33-.4,2.07-.4c.5,0,.99.08,1.48.24.49.16.94.37,1.35.65.41.27.75.59,1.01.95l-.82.85c-.39-.47-.85-.83-1.39-1.1-.54-.26-1.08-.4-1.63-.4-.76,0-1.45.18-2.05.54-.61.36-1.08.86-1.43,1.5-.35.64-.52,1.37-.52,2.19s.18,1.6.53,2.24c.35.64.84,1.14,1.46,1.51.62.37,1.34.55,2.16.55.56,0,1.1-.12,1.62-.35.52-.23.94-.54,1.26-.92l.61.99c-.24.29-.56.54-.95.76s-.82.39-1.28.52-.93.19-1.4.19Z"/>
        <path class="cls-1" d="M146.77,150.72v-10.68h4.18c.62,0,1.18.15,1.69.44.5.29.9.68,1.2,1.18.29.5.44,1.06.44,1.69,0,.7-.2,1.32-.59,1.85-.4.53-.91.91-1.53,1.12l2.55,4.39h-1.42l-2.41-4.21h-2.91v4.21h-1.19ZM147.96,145.35h3.19c.56,0,1.02-.19,1.37-.56.36-.38.53-.85.53-1.43,0-.62-.21-1.13-.64-1.54-.43-.41-.97-.61-1.62-.61h-2.84v4.15Z"/>
        <path class="cls-1" d="M156.84,150.72v-10.68h6.47v1.16h-5.28v3.45h4.42v1.16h-4.42v3.75h5.25v1.16h-6.44Z"/>
        <path class="cls-1" d="M164.79,150.72l4.09-10.68h1.36l4.06,10.68h-1.3l-1.11-2.94h-4.76l-1.11,2.94h-1.22ZM168.6,143.87l-1.04,2.75h3.89l-1.07-2.82c-.12-.34-.26-.74-.43-1.22-.16-.48-.31-.92-.44-1.33-.14.44-.29.88-.44,1.32s-.31.88-.47,1.3Z"/>
        <path class="cls-1" d="M177.42,150.72v-9.52h-3.05v-1.16h7.41v1.16h-3.17v9.52h-1.19Z"/>
        <path class="cls-1" d="M183.29,150.72v-1.13h1.72v-8.42h-1.72v-1.13h4.64v1.13h-1.72v8.42h1.72v1.13h-4.64Z"/>
        <path class="cls-1" d="M193.51,150.72l-4.13-10.68h1.34l2.65,6.96c.18.49.34.9.47,1.24.13.34.25.68.36,1.02.11-.36.23-.71.35-1.06.12-.35.27-.77.46-1.26l2.64-6.9h1.34l-4.26,10.68h-1.22Z"/>
        <path class="cls-1" d="M200.94,150.72v-10.68h6.47v1.16h-5.28v3.45h4.42v1.16h-4.42v3.75h5.25v1.16h-6.44Z"/>
      </g>
    </g>
  </g>
</svg>