<?xml version="1.0" encoding="UTF-8"?>
<svg id="Layer_2" data-name="Layer 2" xmlns="http://www.w3.org/2000/svg" viewBox="0 0 255.36 154.34">
  <defs>
    <style>
      .cls-1, .cls-2, .cls-3 {
        fill: #333;
      }

      .cls-4 {
        letter-spacing: 0em;
      }

      .cls-5 {
        fill: #fff;
      }

      .cls-2 {
        font-family: Lexend-Light, Lexend;
        font-size: 15.25px;
        font-weight: 300;
      }

      .cls-3 {
        font-family: Lexend-ExtraBold, Lexend;
        font-size: 21.04px;
        font-weight: 700;
      }

      .cls-6 {
        letter-spacing: -.05em;
      }

      .cls-7 {
        fill: #8dc63f;
      }

      .cls-8 {
        letter-spacing: -.02em;
      }

      .cls-9 {
        letter-spacing: 0em;
      }

      .cls-10 {
        letter-spacing: -.05em;
      }

      .cls-11 {
        letter-spacing: -.01em;
      }
    </style>
  </defs>
  <g id="Layer_1-2" data-name="Layer 1">
    <g>
      <rect class="cls-1" x="85.4" y="12.9" width="79.81" height="77.49" rx="9.58" ry="9.58" transform="translate(73.22 -73.48) rotate(45)"/>
      <g>
        <path class="cls-5" d="M116.33,79.02c-.89,0-1.8-.18-2.68-.55-2.55-1.08-4.13-3.47-4.13-6.23,0-1.27,1.03-2.3,2.3-2.3s2.3,1.03,2.3,2.3c0,1.33,1.01,1.87,1.32,2,.31.13,1.4.49,2.36-.44l21.25-20.59c.43-.41.66-.97.66-1.56s-.23-1.15-.66-1.56l-21.25-20.59c-.96-.93-2.05-.57-2.36-.44-.31.13-1.33.67-1.33,2s-1.03,2.3-2.3,2.3-2.3-1.03-2.3-2.3c0-2.77,1.58-5.16,4.13-6.23,2.55-1.08,5.37-.55,7.35,1.37l21.25,20.59c1.33,1.29,2.06,3.01,2.06,4.86s-.73,3.58-2.06,4.86l-21.25,20.59c-1.3,1.26-2.97,1.92-4.67,1.92Z"/>
        <path class="cls-7" d="M123.01,64.42c-.58,0-1.15-.21-1.6-.65l-8.28-8.01c-1.12-1.09-1.74-2.55-1.74-4.11s.62-3.02,1.74-4.11l8.28-8.01c.91-.88,2.37-.86,3.25.05s.86,2.37-.05,3.25l-8.28,8.01c-.3.29-.34.63-.34.81s.04.52.34.81l8.28,8.01c.91.88.94,2.34.05,3.25-.45.47-1.05.7-1.65.7Z"/>
      </g>
      <text class="cls-3" transform="translate(0 130.24)"><tspan class="cls-8" x="0" y="0">D</tspan><tspan x="16.05" y="0">AS COMMUN</tspan><tspan class="cls-11" x="153.91" y="0">I</tspan><tspan x="166.01" y="0">C</tspan><tspan class="cls-6" x="180.76" y="0">A</tspan><tspan class="cls-9" x="194.26" y="0">T</tspan><tspan class="cls-11" x="208.8" y="0">I</tspan><tspan class="cls-4" x="220.9" y="0">ON</tspan></text>
      <text class="cls-2" transform="translate(45.11 150.72)"><tspan x="0" y="0">EVER MORE CRE</tspan><tspan class="cls-10" x="121.04" y="0">A</tspan><tspan x="130.55" y="0">TIVE</tspan></text>
    </g>
  </g>
</svg>